<svg xmlns="http://www.w3.org/2000/svg" viewBox="0 0 219.40904 94.04621"><defs><style>.a{fill:#0f213a;}</style></defs><path class="a" d="M88.54771,65.83528a3.15622,3.15622,0,0,0-2.74609-1.5293h-.63526l-.27051.57226A42.10278,42.10278,0,0,1,47.02574,88.89387,41.91439,41.91439,0,0,1,5.20249,44.97053,41.87034,41.87034,0,0,1,84.89585,29.16584l.30567.57227h.63379a3.15172,3.15172,0,0,0,2.79443-4.61377A47.018,47.018,0,0,0,.06822,44.4803,47.01875,47.01875,0,0,0,88.63707,68.90461,3.09686,3.09686,0,0,0,88.54771,65.83528Z"/><path class="a" d="M41.50376,43.40827V59.4488H36.05943V23.70613h8.78906a27.86853,27.86853,0,0,1,5.74951.42773,8.9267,8.9267,0,0,1,3.21045,1.40332,8.3339,8.3339,0,0,1,2.63672,3.35645,11.18947,11.18947,0,0,1,.95215,4.65136,11.4342,11.4342,0,0,1-.95215,4.6875,8.0992,8.0992,0,0,1-2.63672,3.36914A8.76183,8.76183,0,0,1,50.598,42.99324a28.65163,28.65163,0,0,1-5.74951.415H41.50376ZM41.87,38.64753h1.48926q4.834,0,6.44532-1.0498a4.08867,4.08867,0,0,0,1.61132-3.71094q0-2.85645-1.72119-4.02832t-6.33545-1.17188H41.87Z"/><path class="a" d="M82.22642,59.4488H76.92857V56.4449A8.78981,8.78981,0,0,1,69.287,60.4a9.55775,9.55775,0,0,1-7.727-3.35547q-2.81983-3.35742-2.81983-9.19287A13.38713,13.38713,0,0,1,61.621,38.90339a10.18,10.18,0,0,1,12.36524-2.2207A6.936,6.936,0,0,1,76.92857,40.088V36.30378h5.29785Zm-5.15137-11.646A8.47174,8.47174,0,0,0,75.4022,42.212a5.75724,5.75724,0,0,0-4.6748-2.002,5.82331,5.82331,0,0,0-4.72412,2.0625,8.6806,8.6806,0,0,0-1.7212,5.72559,8.68123,8.68123,0,0,0,1.66016,5.689,6.26713,6.26713,0,0,0,9.33887-.17187A8.68367,8.68367,0,0,0,77.07505,47.80281Z"/><path class="a" d="M86.88951,55.24958,91.284,52.857a4.5605,4.5605,0,0,0,1.80664,2.63672,5.88524,5.88524,0,0,0,3.39355.90235,4.33262,4.33262,0,0,0,2.79492-.81641,2.71985,2.71985,0,0,0,1.01368-2.23437q0-1.88086-3.61328-3.22315-1.22169-.43946-1.87989-.73242a15.131,15.131,0,0,1-5.18847-3.125,5.456,5.456,0,0,1-1.47657-3.85742,6.12013,6.12013,0,0,1,2.42969-5.0293,10.048,10.048,0,0,1,6.43262-1.92871,9.92072,9.92072,0,0,1,4.60254.98926,6.08726,6.08726,0,0,1,2.79492,2.81933l-3.75977,2.58789a3.45277,3.45277,0,0,0-1.45312-1.74511,4.44571,4.44571,0,0,0-2.4043-.64746,3.8249,3.8249,0,0,0-2.42969.71972,2.3203,2.3203,0,0,0-.915,1.917q0,1.80762,4.10157,3.2959,1.29345.46436,2.00195.75684a11.6987,11.6987,0,0,1,4.57715,2.86816,5.89558,5.89558,0,0,1,1.37988,3.99268,6.5134,6.5134,0,0,1-2.51465,5.43164A10.99338,10.99338,0,0,1,96.04478,60.4a11.344,11.344,0,0,1-5.63965-1.26953A8.61653,8.61653,0,0,1,86.88951,55.24958Z"/><path class="a" d="M108.17857,55.24958,112.5731,52.857a4.56055,4.56055,0,0,0,1.80664,2.63672,5.8853,5.8853,0,0,0,3.39356.90235,4.33264,4.33264,0,0,0,2.79492-.81641,2.71987,2.71987,0,0,0,1.01367-2.23437q0-1.88086-3.61328-3.22315-1.22169-.43946-1.87989-.73242a15.131,15.131,0,0,1-5.18847-3.125,5.456,5.456,0,0,1-1.47656-3.85742,6.12015,6.12015,0,0,1,2.42968-5.0293,10.048,10.048,0,0,1,6.43262-1.92871,9.92072,9.92072,0,0,1,4.60254.98926,6.08726,6.08726,0,0,1,2.79492,2.81933l-3.75976,2.58789a3.45284,3.45284,0,0,0-1.45313-1.74511,4.44569,4.44569,0,0,0-2.4043-.64746,3.82485,3.82485,0,0,0-2.42968.71972,2.32027,2.32027,0,0,0-.915,1.917q0,1.80762,4.10156,3.2959,1.29345.46436,2.002.75684a11.69862,11.69862,0,0,1,4.57715,2.86816,5.89558,5.89558,0,0,1,1.37988,3.99268,6.51339,6.51339,0,0,1-2.51464,5.43164A10.99343,10.99343,0,0,1,117.33384,60.4a11.34407,11.34407,0,0,1-5.63965-1.26953A8.61658,8.61658,0,0,1,108.17857,55.24958Z"/><path class="a" d="M154.27232,60.83943l-5.34668-12.03565q-.61084-1.3916-1.001-2.47851-.39111-1.08546-.708-2.13575-.53758,1.5879-.95214,2.72168-.416,1.13673-.65918,1.69727l-5.49317,12.231-11.9873-24.53565h5.63965L138.9647,47.461a12.083,12.083,0,0,1,.62305,1.94043q.30468,1.23339.52441,2.72314a7.45517,7.45517,0,0,1,.293-1.83154,16.8727,16.8727,0,0,1,.90332-2.34375l5.66406-12.5h.43946l5.76172,12.5a13.00591,13.00591,0,0,1,.793,2.17285,10.00187,10.00187,0,0,1,.30567,2.00244,21.39462,21.39462,0,0,1,.56152-2.49072,15.24557,15.24557,0,0,1,.78125-2.124l5.10254-11.20606h5.59082Z"/><path class="a" d="M191.40611,59.4488h-5.29785V56.4449A8.78981,8.78981,0,0,1,178.46665,60.4a9.55545,9.55545,0,0,1-7.72656-3.35547q-2.82129-3.35742-2.82031-9.19287a13.38713,13.38713,0,0,1,2.88086-8.94824,10.18,10.18,0,0,1,12.36523-2.2207,6.93606,6.93606,0,0,1,2.94239,3.40527V36.30378h5.29785Zm-5.15137-11.646a8.4718,8.4718,0,0,0-1.67285-5.59082,5.75725,5.75725,0,0,0-4.67481-2.002,5.821,5.821,0,0,0-4.72363,2.0625,8.67537,8.67537,0,0,0-1.72168,5.72559,8.67847,8.67847,0,0,0,1.66016,5.689,6.26713,6.26713,0,0,0,9.33887-.17187A8.68367,8.68367,0,0,0,186.25474,47.80281Z"/><path class="a" d="M202.70982,70.33747h-5.44434l6.34766-12.89062-8.49609-21.14307h5.85937l4.24805,11.98731q.36621,1.09863.64648,2.2334.28125,1.13671.45215,2.30712a28.1922,28.1922,0,0,1,1.51367-3.88134l.12207-.293,5.71289-12.35352H219.409Z"/></svg>